<mxfile host="app.diagrams.net" agent="Mozilla/5.0 (Windows NT 10.0; Win64; x64) AppleWebKit/537.36 (KHTML, like Gecko) Chrome/134.0.0.0 Safari/537.36 Edg/134.0.0.0" version="26.1.0">
  <diagram name="Page-1" id="7AfA_4SxP4-6Hks9ONcf">
    <mxGraphModel dx="776" dy="453" grid="1" gridSize="10" guides="1" tooltips="1" connect="1" arrows="1" fold="1" page="1" pageScale="1" pageWidth="850" pageHeight="1100" math="0" shadow="0">
      <root>
        <mxCell id="0" />
        <mxCell id="1" parent="0" />
        <mxCell id="dVt-Q3bBDwoEB7LZhShj-40" value="" style="rounded=0;whiteSpace=wrap;html=1;" vertex="1" parent="1">
          <mxGeometry x="430" y="85" width="370" height="165" as="geometry" />
        </mxCell>
        <mxCell id="dVt-Q3bBDwoEB7LZhShj-8" value="" style="rounded=0;whiteSpace=wrap;html=1;dashed=1;" vertex="1" parent="1">
          <mxGeometry x="10" y="110" width="160" height="190" as="geometry" />
        </mxCell>
        <mxCell id="dVt-Q3bBDwoEB7LZhShj-5" value="" style="rounded=0;whiteSpace=wrap;html=1;" vertex="1" parent="1">
          <mxGeometry x="30" y="145" width="120" height="60" as="geometry" />
        </mxCell>
        <mxCell id="dVt-Q3bBDwoEB7LZhShj-3" value="Publish Endpoint" style="text;html=1;align=center;verticalAlign=middle;whiteSpace=wrap;rounded=0;" vertex="1" parent="1">
          <mxGeometry x="60" y="160" width="60" height="30" as="geometry" />
        </mxCell>
        <mxCell id="dVt-Q3bBDwoEB7LZhShj-6" value="" style="rounded=0;whiteSpace=wrap;html=1;" vertex="1" parent="1">
          <mxGeometry x="30" y="220" width="120" height="60" as="geometry" />
        </mxCell>
        <mxCell id="dVt-Q3bBDwoEB7LZhShj-7" value="Receive Endpoint" style="text;html=1;align=center;verticalAlign=middle;whiteSpace=wrap;rounded=0;" vertex="1" parent="1">
          <mxGeometry x="60" y="230" width="70" height="40" as="geometry" />
        </mxCell>
        <mxCell id="dVt-Q3bBDwoEB7LZhShj-10" value="Copilot Orchestrator" style="text;html=1;align=center;verticalAlign=middle;whiteSpace=wrap;rounded=0;" vertex="1" parent="1">
          <mxGeometry x="20" y="115" width="150" height="30" as="geometry" />
        </mxCell>
        <mxCell id="dVt-Q3bBDwoEB7LZhShj-15" value="" style="shape=document;whiteSpace=wrap;html=1;boundedLbl=1;" vertex="1" parent="1">
          <mxGeometry x="265" y="100" width="80" height="50" as="geometry" />
        </mxCell>
        <mxCell id="dVt-Q3bBDwoEB7LZhShj-16" value="ASB &lt;br&gt;configuration" style="text;html=1;align=center;verticalAlign=middle;whiteSpace=wrap;rounded=0;" vertex="1" parent="1">
          <mxGeometry x="260" y="106" width="85" height="30" as="geometry" />
        </mxCell>
        <mxCell id="dVt-Q3bBDwoEB7LZhShj-18" value="Messaging &lt;br&gt;Framework" style="whiteSpace=wrap;html=1;aspect=fixed;" vertex="1" parent="1">
          <mxGeometry x="250" y="153" width="120" height="120" as="geometry" />
        </mxCell>
        <mxCell id="dVt-Q3bBDwoEB7LZhShj-20" value="" style="endArrow=none;html=1;rounded=0;exitX=0;exitY=0.143;exitDx=0;exitDy=0;exitPerimeter=0;entryX=0.996;entryY=0.152;entryDx=0;entryDy=0;entryPerimeter=0;" edge="1" parent="1" source="dVt-Q3bBDwoEB7LZhShj-40" target="dVt-Q3bBDwoEB7LZhShj-40">
          <mxGeometry width="50" height="50" relative="1" as="geometry">
            <mxPoint x="440" y="120" as="sourcePoint" />
            <mxPoint x="600" y="120" as="targetPoint" />
          </mxGeometry>
        </mxCell>
        <mxCell id="dVt-Q3bBDwoEB7LZhShj-21" value="Azure Service Bus" style="text;html=1;align=center;verticalAlign=middle;whiteSpace=wrap;rounded=0;" vertex="1" parent="1">
          <mxGeometry x="518" y="90" width="180" height="17" as="geometry" />
        </mxCell>
        <mxCell id="dVt-Q3bBDwoEB7LZhShj-25" style="edgeStyle=orthogonalEdgeStyle;rounded=0;orthogonalLoop=1;jettySize=auto;html=1;entryX=0.5;entryY=0;entryDx=0;entryDy=0;" edge="1" parent="1" source="dVt-Q3bBDwoEB7LZhShj-22" target="dVt-Q3bBDwoEB7LZhShj-23">
          <mxGeometry relative="1" as="geometry" />
        </mxCell>
        <mxCell id="dVt-Q3bBDwoEB7LZhShj-22" value="copilot-request-topic" style="rounded=1;whiteSpace=wrap;html=1;" vertex="1" parent="1">
          <mxGeometry x="460" y="130" width="130" height="30" as="geometry" />
        </mxCell>
        <mxCell id="dVt-Q3bBDwoEB7LZhShj-50" style="edgeStyle=orthogonalEdgeStyle;rounded=0;orthogonalLoop=1;jettySize=auto;html=1;entryX=0.5;entryY=0;entryDx=0;entryDy=0;exitX=0.5;exitY=1;exitDx=0;exitDy=0;" edge="1" parent="1" source="dVt-Q3bBDwoEB7LZhShj-23" target="dVt-Q3bBDwoEB7LZhShj-48">
          <mxGeometry relative="1" as="geometry">
            <mxPoint x="480" y="301" as="sourcePoint" />
            <mxPoint x="177.5" y="460" as="targetPoint" />
            <Array as="points">
              <mxPoint x="480" y="340" />
              <mxPoint x="175" y="340" />
            </Array>
          </mxGeometry>
        </mxCell>
        <mxCell id="dVt-Q3bBDwoEB7LZhShj-23" value="pm-copilot-request-subs" style="rounded=1;whiteSpace=wrap;html=1;" vertex="1" parent="1">
          <mxGeometry x="440" y="205" width="80" height="30" as="geometry" />
        </mxCell>
        <mxCell id="dVt-Q3bBDwoEB7LZhShj-24" value="om-copilot-request-subs" style="rounded=1;whiteSpace=wrap;html=1;" vertex="1" parent="1">
          <mxGeometry x="529" y="205" width="80" height="30" as="geometry" />
        </mxCell>
        <mxCell id="dVt-Q3bBDwoEB7LZhShj-27" style="edgeStyle=orthogonalEdgeStyle;rounded=0;orthogonalLoop=1;jettySize=auto;html=1;entryX=-0.006;entryY=0.319;entryDx=0;entryDy=0;entryPerimeter=0;" edge="1" parent="1" source="dVt-Q3bBDwoEB7LZhShj-5" target="dVt-Q3bBDwoEB7LZhShj-18">
          <mxGeometry relative="1" as="geometry" />
        </mxCell>
        <mxCell id="dVt-Q3bBDwoEB7LZhShj-29" value="" style="endArrow=classic;html=1;rounded=0;entryX=1;entryY=0.25;entryDx=0;entryDy=0;" edge="1" parent="1" target="dVt-Q3bBDwoEB7LZhShj-5">
          <mxGeometry width="50" height="50" relative="1" as="geometry">
            <mxPoint x="260" y="121" as="sourcePoint" />
            <mxPoint x="200" y="170" as="targetPoint" />
          </mxGeometry>
        </mxCell>
        <mxCell id="dVt-Q3bBDwoEB7LZhShj-30" value="" style="endArrow=classic;html=1;rounded=0;exitX=0;exitY=0.75;exitDx=0;exitDy=0;entryX=1;entryY=0.5;entryDx=0;entryDy=0;jumpStyle=arc;" edge="1" parent="1" source="dVt-Q3bBDwoEB7LZhShj-15" target="dVt-Q3bBDwoEB7LZhShj-6">
          <mxGeometry width="50" height="50" relative="1" as="geometry">
            <mxPoint x="270" y="131" as="sourcePoint" />
            <mxPoint x="160" y="170" as="targetPoint" />
          </mxGeometry>
        </mxCell>
        <mxCell id="dVt-Q3bBDwoEB7LZhShj-31" style="edgeStyle=orthogonalEdgeStyle;rounded=0;orthogonalLoop=1;jettySize=auto;html=1;entryX=0.5;entryY=0;entryDx=0;entryDy=0;exitX=0.559;exitY=1.044;exitDx=0;exitDy=0;exitPerimeter=0;" edge="1" parent="1" source="dVt-Q3bBDwoEB7LZhShj-22" target="dVt-Q3bBDwoEB7LZhShj-24">
          <mxGeometry relative="1" as="geometry">
            <mxPoint x="525" y="170" as="sourcePoint" />
            <mxPoint x="490" y="210" as="targetPoint" />
          </mxGeometry>
        </mxCell>
        <mxCell id="dVt-Q3bBDwoEB7LZhShj-43" style="edgeStyle=orthogonalEdgeStyle;rounded=0;orthogonalLoop=1;jettySize=auto;html=1;entryX=0.5;entryY=0;entryDx=0;entryDy=0;" edge="1" parent="1" source="dVt-Q3bBDwoEB7LZhShj-44" target="dVt-Q3bBDwoEB7LZhShj-45">
          <mxGeometry relative="1" as="geometry" />
        </mxCell>
        <mxCell id="dVt-Q3bBDwoEB7LZhShj-44" value="copilot-response-topic" style="rounded=1;whiteSpace=wrap;html=1;" vertex="1" parent="1">
          <mxGeometry x="650" y="130" width="130" height="30" as="geometry" />
        </mxCell>
        <mxCell id="dVt-Q3bBDwoEB7LZhShj-45" value="copilot-response-subs" style="rounded=1;whiteSpace=wrap;html=1;" vertex="1" parent="1">
          <mxGeometry x="657.5" y="200" width="115" height="30" as="geometry" />
        </mxCell>
        <mxCell id="dVt-Q3bBDwoEB7LZhShj-48" value="PM Copilot" style="whiteSpace=wrap;html=1;aspect=fixed;" vertex="1" parent="1">
          <mxGeometry x="140" y="380" width="70" height="70" as="geometry" />
        </mxCell>
        <mxCell id="dVt-Q3bBDwoEB7LZhShj-49" value="OM Copilot" style="whiteSpace=wrap;html=1;aspect=fixed;" vertex="1" parent="1">
          <mxGeometry x="300" y="380" width="70" height="70" as="geometry" />
        </mxCell>
        <mxCell id="dVt-Q3bBDwoEB7LZhShj-53" style="edgeStyle=orthogonalEdgeStyle;rounded=0;orthogonalLoop=1;jettySize=auto;html=1;exitX=0.5;exitY=1;exitDx=0;exitDy=0;jumpStyle=arc;" edge="1" parent="1" source="dVt-Q3bBDwoEB7LZhShj-24">
          <mxGeometry relative="1" as="geometry">
            <mxPoint x="645" y="250" as="sourcePoint" />
            <mxPoint x="340" y="380" as="targetPoint" />
            <Array as="points">
              <mxPoint x="569" y="250" />
              <mxPoint x="570" y="250" />
              <mxPoint x="570" y="355" />
              <mxPoint x="340" y="355" />
            </Array>
          </mxGeometry>
        </mxCell>
      </root>
    </mxGraphModel>
  </diagram>
</mxfile>
